<svg width="40" height="40" viewBox="0 0 40 40" fill="none" xmlns="http://www.w3.org/2000/svg">
<path d="M14.923 18.9233L18.6188 15.202L15.7405 12.2979L13.8588 14.1795L12.1026 12.4233L13.9584 10.5416L11.3942 7.97744L7.673 11.6987L14.923 18.9233ZM28.2855 32.3108L32.0063 28.5895L29.4422 26.0254L27.5609 27.8812L25.8047 26.1249L27.6605 24.2437L24.7726 21.3812L21.0767 25.077L28.2855 32.3108ZM12.0034 34.1666H5.83341V27.9966L13.1413 20.6891L4.16675 11.6987L11.3942 4.47119L20.4263 13.487L27.2951 6.59286C27.5537 6.33425 27.8379 6.143 28.1476 6.01911C28.4573 5.89522 28.7811 5.83327 29.1188 5.83327C29.4563 5.83327 29.7799 5.89522 30.0897 6.01911C30.3997 6.143 30.6838 6.33425 30.9422 6.59286L33.4072 9.13161C33.6658 9.38994 33.8542 9.67411 33.9726 9.98411C34.0912 10.2938 34.1505 10.6174 34.1505 10.9549C34.1505 11.2927 34.0912 11.6095 33.9726 11.9054C33.8542 12.2012 33.6658 12.4784 33.4072 12.737L26.5705 19.6154L35.5288 28.6058L28.3013 35.8333L19.3109 26.8587L12.0034 34.1666ZM8.33342 31.6666H10.9392L27.2884 15.3429L24.6572 12.7116L8.33342 29.0608V31.6666ZM25.9938 14.032L24.6572 12.7116L27.2884 15.3429L25.9938 14.032Z" fill="#5757FF"/>
</svg>
