<svg width="40" height="40" viewBox="0 0 40 40" fill="none" xmlns="http://www.w3.org/2000/svg">
<path d="M8.84629 35.8334C8.00435 35.8334 7.29171 35.5417 6.70837 34.9584C6.12504 34.375 5.83337 33.6624 5.83337 32.8204V10.5129C5.83337 9.671 6.12504 8.95836 6.70837 8.37503C7.29171 7.79169 8.00435 7.50003 8.84629 7.50003H11.1538V3.97461H13.718V7.50003H26.3463V3.97461H28.8463V7.50003H31.1538C31.9957 7.50003 32.7084 7.79169 33.2917 8.37503C33.875 8.95836 34.1667 9.671 34.1667 10.5129V21.3142L31.6667 23.8142V17.1796H8.33337V32.8204C8.33337 32.9488 8.38685 33.0663 8.49379 33.1729C8.60046 33.2799 8.71796 33.3334 8.84629 33.3334H18.9713L21.4871 35.8334H8.84629ZM8.33337 14.6796H31.6667V10.5129C31.6667 10.3846 31.6132 10.2671 31.5063 10.1604C31.3996 10.0535 31.2821 10 31.1538 10H8.84629C8.71796 10 8.60046 10.0535 8.49379 10.1604C8.38685 10.2671 8.33337 10.3846 8.33337 10.5129V14.6796ZM27.5192 36.6667L22.2759 31.4392L24.0321 29.6829L27.4938 33.1442L34.4167 26.2213L36.173 28.0034L27.5192 36.6667Z" fill="#5757FF"/>
</svg>
