<svg width="40" height="40" viewBox="0 0 40 40" fill="none" xmlns="http://www.w3.org/2000/svg">
<path d="M4.16663 33.3332V21.282H16.2179V33.3332H4.16663ZM6.66663 30.8332H13.7179V23.782H6.66663V30.8332ZM10.5129 15.8332L18.5258 2.69238L26.5383 15.8332H10.5129ZM14.9229 13.3332H22.1283L18.5258 7.53822L14.9229 13.3332ZM35.9904 37.3203L31.6058 32.9357C31.0544 33.3352 30.4491 33.6402 29.79 33.8507C29.1308 34.0613 28.4316 34.1665 27.6925 34.1665C25.78 34.1665 24.1587 33.5014 22.8287 32.1711C21.4984 30.8411 20.8333 29.2199 20.8333 27.3074C20.8333 25.3952 21.4984 23.7739 22.8287 22.4436C24.1587 21.1136 25.78 20.4486 27.6925 20.4486C29.6047 20.4486 31.2259 21.1136 32.5562 22.4436C33.8862 23.7739 34.5512 25.3952 34.5512 27.3074C34.5512 28.0296 34.4459 28.7177 34.2354 29.3715C34.0251 30.0254 33.734 30.6281 33.362 31.1795L37.7466 35.564L35.9904 37.3203ZM27.6916 31.6665C28.9122 31.6665 29.944 31.2452 30.787 30.4024C31.6298 29.5599 32.0512 28.5285 32.0512 27.3082C32.0512 26.0877 31.63 25.0559 30.7875 24.2128C29.9447 23.37 28.9132 22.9486 27.6929 22.9486C26.4723 22.9486 25.4407 23.3699 24.5979 24.2124C23.7548 25.0552 23.3333 26.0867 23.3333 27.307C23.3333 28.5275 23.7547 29.5592 24.5975 30.402C25.44 31.245 26.4713 31.6665 27.6916 31.6665Z" fill="#5757FF"/>
</svg>
