<svg width="40" height="40" viewBox="0 0 40 40" fill="none" xmlns="http://www.w3.org/2000/svg">
<path d="M18.25 25.3396L27.0896 16.5L25.3075 14.7179L18.25 21.7758L14.7179 18.2438L12.9358 20.0258L18.25 25.3396ZM20 35.8013C16.3953 34.8182 13.4108 32.6964 11.0467 29.4358C8.68222 26.1753 7.5 22.53 7.5 18.5V8.91042L20 4.23083L32.5 8.91042V18.5C32.5 22.53 31.3178 26.1753 28.9533 29.4358C26.5892 32.6964 23.6047 34.8182 20 35.8013ZM20 33.1667C22.8889 32.25 25.2778 30.4167 27.1667 27.6667C29.0556 24.9167 30 21.8611 30 18.5V10.625L20 6.89084L10 10.625V18.5C10 21.8611 10.9444 24.9167 12.8333 27.6667C14.7222 30.4167 17.1111 32.25 20 33.1667Z" fill="#5757FF"/>
</svg>
