<svg width="40" height="40" viewBox="0 0 40 40" fill="none" xmlns="http://www.w3.org/2000/svg">
<path d="M13.4295 29.1667C12.5876 29.1667 11.8749 28.8751 11.2916 28.2917C10.7083 27.7084 10.4166 26.9958 10.4166 26.1538V7.17966C10.4166 6.33772 10.7083 5.62508 11.2916 5.04175C11.8749 4.45841 12.5876 4.16675 13.4295 4.16675H32.4037C33.2456 4.16675 33.9583 4.45841 34.5416 5.04175C35.1249 5.62508 35.4166 6.33772 35.4166 7.17966V26.1538C35.4166 26.9958 35.1249 27.7084 34.5416 28.2917C33.9583 28.8751 33.2456 29.1667 32.4037 29.1667H13.4295ZM13.4295 26.6667H32.4037C32.532 26.6667 32.6495 26.6133 32.7562 26.5063C32.8631 26.3997 32.9166 26.2822 32.9166 26.1538V7.17966C32.9166 7.05133 32.8631 6.93383 32.7562 6.82716C32.6495 6.72022 32.532 6.66675 32.4037 6.66675H13.4295C13.3012 6.66675 13.1837 6.72022 13.077 6.82716C12.9701 6.93383 12.9166 7.05133 12.9166 7.17966V26.1538C12.9166 26.2822 12.9701 26.3997 13.077 26.5063C13.1837 26.6133 13.3012 26.6667 13.4295 26.6667ZM7.59617 35.0001C6.75422 35.0001 6.04159 34.7084 5.45825 34.1251C4.87492 33.5417 4.58325 32.8291 4.58325 31.9872V10.513H7.08325V31.9872C7.08325 32.1155 7.13672 32.233 7.24367 32.3397C7.35034 32.4466 7.46784 32.5001 7.59617 32.5001H29.0703V35.0001H7.59617Z" fill="#5757FF"/>
</svg>
