<svg width="40" height="40" viewBox="0 0 40 40" fill="none" xmlns="http://www.w3.org/2000/svg">
<path d="M20.0029 35.8334C17.8129 35.8334 15.7544 35.4179 13.8275 34.5867C11.9005 33.7556 10.2244 32.6277 8.79913 31.203C7.37385 29.7783 6.24538 28.1029 5.41371 26.1767C4.58232 24.2506 4.16663 22.1927 4.16663 20.003C4.16663 17.813 4.58218 15.7545 5.41329 13.8276C6.2444 11.9006 7.37232 10.2245 8.79704 8.79925C10.2218 7.37397 11.8972 6.2455 13.8233 5.41383C15.7494 4.58244 17.8073 4.16675 19.997 4.16675C22.187 4.16675 24.2455 4.5823 26.1725 5.41341C28.0994 6.24452 29.7755 7.37244 31.2008 8.79716C32.6261 10.2219 33.7545 11.8973 34.5862 13.8234C35.4176 15.7495 35.8333 17.8074 35.8333 19.9972C35.8333 22.1872 35.4177 24.2456 34.5866 26.1726C33.7555 28.0995 32.6276 29.7756 31.2029 31.2009C29.7782 32.6262 28.1027 33.7547 26.1766 34.5863C24.2505 35.4177 22.1926 35.8334 20.0029 35.8334ZM15.1666 32.4167L17.6154 26.8397C16.5751 26.4724 15.6772 25.9031 14.9216 25.1317C14.1661 24.3601 13.5897 23.4551 13.1925 22.4167L7.55121 24.7501C8.20093 26.5279 9.19246 28.0834 10.5258 29.4167C11.8591 30.7501 13.4061 31.7501 15.1666 32.4167ZM13.1925 17.5834C13.5686 16.5451 14.1375 15.6472 14.8991 14.8897C15.6608 14.1322 16.5555 13.5665 17.5833 13.1926L15.25 7.55133C13.4616 8.22883 11.9008 9.23425 10.5675 10.5676C9.23413 11.9009 8.22871 13.4617 7.55121 15.2501L13.1925 17.5834ZM19.9962 24.7438C21.3129 24.7438 22.4333 24.283 23.3575 23.3613C24.2816 22.4397 24.7437 21.3205 24.7437 20.0038C24.7437 18.6872 24.2829 17.5667 23.3612 16.6426C22.4395 15.7184 21.3204 15.2563 20.0037 15.2563C18.687 15.2563 17.5666 15.7172 16.6425 16.6388C15.7183 17.5605 15.2562 18.6797 15.2562 19.9963C15.2562 21.313 15.717 22.4334 16.6387 23.3576C17.5604 24.2817 18.6795 24.7438 19.9962 24.7438ZM24.8333 32.4167C26.5833 31.7501 28.118 30.757 29.4375 29.4376C30.7569 28.1181 31.75 26.5834 32.4166 24.8334L26.8395 22.3847C26.487 23.4124 25.9283 24.3045 25.1633 25.0609C24.3983 25.8173 23.5105 26.3995 22.5 26.8076L24.8333 32.4167ZM26.8075 17.5001L32.4166 15.1667C31.75 13.4167 30.7569 11.882 29.4375 10.5626C28.118 9.24314 26.5833 8.25008 24.8333 7.58341L22.5 13.2438C23.4891 13.6283 24.3523 14.1881 25.0895 14.9234C25.8268 15.6584 26.3994 16.5173 26.8075 17.5001Z" fill="#5757FF"/>
</svg>
