<svg width="24" height="24" viewBox="0 0 24 24" fill="none" xmlns="http://www.w3.org/2000/svg">
<path d="M8.95375 11.3541L11.1713 9.12136L9.44425 7.37886L8.31525 8.50786L7.2615 7.45411L8.375 6.32511L6.8365 4.78661L4.60375 7.01936L8.95375 11.3541ZM16.9713 19.3866L19.2038 17.1539L17.6653 15.6154L16.5365 16.7289L15.4828 15.6751L16.5963 14.5464L14.8635 12.8289L12.646 15.0464L16.9713 19.3866ZM7.202 20.5001H3.5V16.7981L7.88475 12.4136L2.5 7.01936L6.8365 2.68286L12.2558 8.09236L16.377 3.95586C16.5322 3.80069 16.7027 3.68595 16.8885 3.61161C17.0743 3.53728 17.2686 3.50011 17.4713 3.50011C17.6738 3.50011 17.8679 3.53728 18.0538 3.61161C18.2398 3.68595 18.4103 3.80069 18.5653 3.95586L20.0443 5.47911C20.1994 5.63411 20.3125 5.80461 20.3835 5.99061C20.4547 6.17645 20.4903 6.37061 20.4903 6.57311C20.4903 6.77578 20.4547 6.96586 20.3835 7.14336C20.3125 7.32086 20.1994 7.4872 20.0443 7.64236L15.9423 11.7694L21.3173 17.1636L16.9808 21.5001L11.5865 16.1154L7.202 20.5001ZM5 19.0001H6.5635L16.373 9.20586L14.7943 7.62711L5 17.4366V19.0001ZM15.5963 8.41936L14.7943 7.62711L16.373 9.20586L15.5963 8.41936Z" fill="#5757FF"/>
</svg>
