<svg width="40" height="40" viewBox="0 0 40 40" fill="none" xmlns="http://www.w3.org/2000/svg">
<path d="M7.49998 32.5001V12.6668L4.4104 5.90384L6.6729 4.84009L10.2371 12.5834H29.7629L33.3271 4.84009L35.5896 5.90384L32.5 12.6668V32.5001H7.49998ZM16.6667 21.2501H23.3333C23.6875 21.2501 23.9843 21.1302 24.2237 20.8905C24.4635 20.6508 24.5833 20.3538 24.5833 19.9997C24.5833 19.6452 24.4635 19.3484 24.2237 19.1093C23.9843 18.8698 23.6875 18.7501 23.3333 18.7501H16.6667C16.3125 18.7501 16.0157 18.87 15.7762 19.1097C15.5365 19.3494 15.4167 19.6463 15.4167 20.0005C15.4167 20.355 15.5365 20.6518 15.7762 20.8909C16.0157 21.1304 16.3125 21.2501 16.6667 21.2501ZM9.99998 30.0001H30V15.0834H9.99998V30.0001Z" fill="#5757FF"/>
</svg>
