<svg width="28" height="28" viewBox="0 0 28 28" fill="none" xmlns="http://www.w3.org/2000/svg">
<path d="M6.19242 23.9166C5.60305 23.9166 5.10421 23.7124 4.69587 23.3041C4.28754 22.8958 4.08337 22.3969 4.08337 21.8075V6.19229C4.08337 5.60293 4.28754 5.10409 4.69587 4.69575C5.10421 4.28742 5.60305 4.08325 6.19242 4.08325H13.5512V5.83325H6.19242C6.10258 5.83325 6.02033 5.87068 5.94567 5.94554C5.87081 6.02021 5.83337 6.10246 5.83337 6.19229V21.8075C5.83337 21.8974 5.87081 21.9796 5.94567 22.0543C6.02033 22.1292 6.10258 22.1666 6.19242 22.1666H21.8077C21.8975 22.1666 21.9798 22.1292 22.0544 22.0543C22.1293 21.9796 22.1667 21.8974 22.1667 21.8075V14.4488H23.9167V21.8075C23.9167 22.3969 23.7125 22.8958 23.3042 23.3041C22.8959 23.7124 22.397 23.9166 21.8077 23.9166H6.19242ZM11.3392 17.8902L10.1098 16.6608L20.9373 5.83325H16.3334V4.08325H23.9167V11.6666H22.1667V7.06263L11.3392 17.8902Z" fill="#5757FF"/>
</svg>
