<svg width="40" height="40" viewBox="0 0 40 40" fill="none" xmlns="http://www.w3.org/2000/svg">
<path d="M12.0834 24.5834V15.0964C12.0834 14.2652 12.3777 13.5552 12.9663 12.9664C13.5552 12.3777 14.2652 12.0834 15.0963 12.0834H29.3525L24.6442 7.3751L26.4263 5.59302L34.1667 13.3334L26.4263 21.0897L24.6442 19.3334L29.3525 14.5834H15.0963C14.9466 14.5834 14.8237 14.6315 14.7275 14.7276C14.6314 14.8237 14.5834 14.9466 14.5834 15.0964V24.5834H12.0834ZM8.84629 34.1668C8.01518 34.1668 7.30518 33.8725 6.71629 33.2839C6.12768 32.695 5.83337 31.985 5.83337 31.1539V7.17968H8.33337V31.1539C8.33337 31.3036 8.38143 31.4265 8.47754 31.5226C8.57365 31.6187 8.69657 31.6668 8.84629 31.6668H27.8205C27.9702 31.6668 28.0931 31.6187 28.1892 31.5226C28.2853 31.4265 28.3334 31.3036 28.3334 31.1539V24.5834H30.8334V31.1539C30.8334 31.985 30.5391 32.695 29.9505 33.2839C29.3616 33.8725 28.6516 34.1668 27.8205 34.1668H8.84629Z" fill="#5757FF"/>
</svg>
