<svg width="40" height="40" viewBox="0 0 40 40" fill="none" xmlns="http://www.w3.org/2000/svg">
<path d="M12.9166 24.3266H14.9037V18.4937H12.9166V20.4166H10.4166V22.4037H12.9166V24.3266ZM16.5704 22.4037H29.5833V20.4166H16.5704V22.4037ZM25.0962 18.1728H27.0833V16.2499H29.5833V14.2628H27.0833V12.3399H25.0962V18.1728ZM10.4166 16.2499H23.4295V14.2628H10.4166V16.2499ZM14.1666 34.1666V30.8333H7.17954C6.3376 30.8333 5.62496 30.5416 5.04163 29.9583C4.45829 29.3749 4.16663 28.6623 4.16663 27.8203V8.84617C4.16663 8.00422 4.45829 7.29159 5.04163 6.70825C5.62496 6.12492 6.3376 5.83325 7.17954 5.83325H32.8204C33.6623 5.83325 34.375 6.12492 34.9583 6.70825C35.5416 7.29159 35.8333 8.00422 35.8333 8.84617V27.8203C35.8333 28.6623 35.5416 29.3749 34.9583 29.9583C34.375 30.5416 33.6623 30.8333 32.8204 30.8333H25.8333V34.1666H14.1666ZM7.17954 28.3333H32.8204C32.9487 28.3333 33.0662 28.2798 33.1729 28.1728C33.2798 28.0662 33.3333 27.9487 33.3333 27.8203V8.84617C33.3333 8.71784 33.2798 8.60033 33.1729 8.49367C33.0662 8.38672 32.9487 8.33325 32.8204 8.33325H7.17954C7.05121 8.33325 6.93371 8.38672 6.82704 8.49367C6.7201 8.60033 6.66663 8.71784 6.66663 8.84617V27.8203C6.66663 27.9487 6.7201 28.0662 6.82704 28.1728C6.93371 28.2798 7.05121 28.3333 7.17954 28.3333Z" fill="#5757FF"/>
</svg>
