<svg width="40" height="40" viewBox="0 0 40 40" fill="none" xmlns="http://www.w3.org/2000/svg">
<path d="M27.0833 34.5416V29.5416H22.0833V27.0416H27.0833V22.0416H29.5833V27.0416H34.5833V29.5416H29.5833V34.5416H27.0833ZM5.41663 29.5833V27.0833H7.91663V29.5833H5.41663ZM11.25 29.5833V27.0833H18.827C18.7757 27.5221 18.7569 27.9401 18.7708 28.337C18.7847 28.7339 18.8173 29.1494 18.8687 29.5833H11.25ZM5.41663 22.9166V20.4166H7.91663V22.9166H5.41663ZM11.25 22.9166V20.4166H22.8783C22.3997 20.7541 21.9622 21.1312 21.5658 21.5478C21.1694 21.9645 20.8088 22.4208 20.4841 22.9166H11.25ZM5.41663 16.2499V13.7499H7.91663V16.2499H5.41663ZM11.25 16.2499V13.7499H31.25V16.2499H11.25ZM5.41663 9.58325V7.08325H7.91663V9.58325H5.41663ZM11.25 9.58325V7.08325H31.25V9.58325H11.25Z" fill="#5757FF"/>
</svg>
